#N canvas 509 130 634 412 10;
#X obj 226 225 packOSC;
#X msg 119 67 connect localhost 9001;
#X msg 203 92 disconnect;
#X obj 112 268 udpsend;
#X floatatom 225 148 5 0 0 0 - - -, f 5;
#X obj 305 261 udpreceive 9001;
#X obj 306 287 unpackOSC;
#X obj 329 391 print;
#X obj 118 32 loadbang;
#X obj 128 318 tcpreceive 9001;
#X obj 308 314 routeOSC /test;
#X msg 223 192 send /test/me \$1;
#X msg 348 140 0 1;
#X msg 365 196 send /test/mute \$2;
#X obj 310 339 routeOSC /me /mute;
#X obj 286 365 unpack f f;
#X connect 0 0 3 0;
#X connect 1 0 3 0;
#X connect 2 0 3 0;
#X connect 5 0 6 0;
#X connect 6 0 10 0;
#X connect 10 0 14 0;
#X connect 11 0 0 0;
#X connect 12 0 11 0;
#X connect 12 0 13 0;
#X connect 13 0 0 0;
#X connect 14 0 15 0;
#X connect 14 1 15 0;
#X connect 15 0 7 0;
#X connect 15 1 7 0;
