#N canvas 511 118 634 412 10;
#X obj 226 225 packOSC;
#X msg 119 67 connect localhost 9001;
#X msg 203 92 disconnect;
#X obj 112 268 udpsend;
#X floatatom 227 160 5 0 0 0 - - -, f 5;
#X msg 223 192 send /test \$1;
#X obj 459 288 udpreceive 9001;
#X obj 468 322 unpackOSC;
#X obj 468 360 print;
#X msg 364 196 send /test/mute;
#X obj 118 32 loadbang;
#X connect 0 0 3 0;
#X connect 1 0 3 0;
#X connect 2 0 3 0;
#X connect 4 0 5 0;
#X connect 5 0 0 0;
#X connect 6 0 7 0;
#X connect 7 0 8 0;
#X connect 9 0 0 0;
#X connect 10 0 1 0;
