#N canvas 510 124 634 412 10;
#X obj 226 225 packOSC;
#X msg 119 67 connect localhost 9001;
#X msg 203 92 disconnect;
#X obj 112 268 udpsend;
#X floatatom 227 160 5 0 0 0 - - -, f 5;
#X obj 305 261 udpreceive 9001;
#X obj 306 300 unpackOSC;
#X obj 329 391 print;
#X msg 364 196 send /test/mute;
#X obj 118 32 loadbang;
#X msg 223 192 send /test/me \$1;
#X obj 128 318 tcpreceive 9001;
#X obj 308 331 routeOSC /test;
#X obj 312 356 routeOSC /me;
#X obj 439 377 unpack f;
#X connect 0 0 3 0;
#X connect 1 0 3 0;
#X connect 2 0 3 0;
#X connect 4 0 10 0;
#X connect 5 0 6 0;
#X connect 6 0 12 0;
#X connect 8 0 0 0;
#X connect 10 0 0 0;
#X connect 12 0 13 0;
#X connect 13 0 14 0;
#X connect 14 0 7 0;
