#N canvas 747 23 692 605 10;
#X obj 112 121 hsl 30 10 0.05 200 0 0 empty empty rate -2 -8 0 10 -262144
-1 -1 0 1;
#X obj 155 121 hsl 30 10 0 1 0 0 empty empty depth -2 -8 0 10 -262144
-1 -1 0 1;
#X obj 111 198 osc~;
#X obj 111 228 +~ 1;
#X obj 111 256 *~ 0.5;
#X obj 137 285 *~;
#X obj 140 370 +~;
#X obj 159 309 swap 1;
#X obj 168 339 -;
#X obj 140 399 outlet~ signal;
#X text 163 197 Rate controls this osc.;
#X text 164 225 Move min. val above 0;
#X text 165 256 Amp. back down to 1 & 0;
#X text 166 285 Mult. by depth of effect;
#X text 205 309 1 - depth \, depth 0 = 1 and vice versa;
#X obj 109 78 inlet rate;
#X obj 179 78 inlet depth;
#X floatatom 110 155 5 0.05 200 0 - - -;
#X floatatom 155 155 5 0 0 0 - - -;
#X obj 236 147 * 100;
#X text 116 139 Hz;
#X text 161 139 %, f 2;
#X connect 0 0 2 0;
#X connect 0 0 17 0;
#X connect 1 0 5 1;
#X connect 1 0 7 0;
#X connect 1 0 19 0;
#X connect 2 0 3 0;
#X connect 3 0 4 0;
#X connect 4 0 5 0;
#X connect 5 0 6 0;
#X connect 6 0 9 0;
#X connect 7 0 8 0;
#X connect 7 1 8 1;
#X connect 8 0 6 1;
#X connect 15 0 0 0;
#X connect 16 0 1 0;
#X connect 19 0 18 0;
#X coords 0 -1 1 1 100 85 2 100 100;
