#N canvas 379 23 1095 945 10;
#X obj 260 260 tgl 15 0 empty empty empty 17 7 0 10 -258113 -1 -1 1
1;
#X obj 277 260 tgl 15 0 empty empty empty 17 7 0 10 -262144 -1 -1 1
1;
#X obj 294 260 tgl 15 0 empty empty empty 17 7 0 10 -262144 -1 -1 1
1;
#X obj 311 260 tgl 15 0 empty empty empty 17 7 0 10 -262144 -1 -1 1
1;
#X obj 328 260 tgl 15 0 empty empty empty 17 7 0 10 -258113 -1 -1 1
1;
#X obj 345 260 tgl 15 0 empty empty empty 17 7 0 10 -262144 -1 -1 1
1;
#X obj 362 260 tgl 15 0 empty empty empty 17 7 0 10 -262144 -1 -1 1
1;
#X obj 379 260 tgl 15 0 empty empty empty 17 7 0 10 -262144 -1 -1 1
1;
#X obj 396 260 tgl 15 0 empty empty empty 17 7 0 10 -258113 -1 -1 1
1;
#X obj 413 260 tgl 15 0 empty empty empty 17 7 0 10 -262144 -1 -1 1
1;
#X obj 430 260 tgl 15 0 empty empty empty 17 7 0 10 -262144 -1 -1 1
1;
#X obj 447 260 tgl 15 0 empty empty empty 17 7 0 10 -262144 -1 -1 1
1;
#X obj 464 260 tgl 15 0 empty empty empty 17 7 0 10 -258113 -1 -1 1
1;
#X obj 481 260 tgl 15 0 empty empty empty 17 7 0 10 -262144 -1 -1 1
1;
#X obj 498 260 tgl 15 0 empty empty empty 17 7 0 10 -262144 -1 -1 1
1;
#X obj 515 260 tgl 15 0 empty empty empty 17 7 0 10 -262144 -1 -1 1
1;
#X obj 259 240 hradio 17 1 0 16 empty empty empty 0 -8 0 10 -262144
-1 -1 8;
#X obj 260 168 SequencerControl ~;
#X obj 331 69 bng 15 250 50 0 empty empty empty 17 7 0 10 -262144 -1
-1;
#X text 253 50 PLAY;
#X text 288 50 STOP;
#X text 321 49 RESET;
#X obj 295 70 bng 15 250 50 0 empty empty empty 17 7 0 10 -262144 -1
-1;
#X obj 260 69 bng 15 250 50 0 empty empty empty 17 7 0 10 -262144 -1
-1;
#X obj 79 273 SequencerChannel ~, f 25;
#X msg 612 245 0;
#X text 642 245 Clear Sequence;
#X obj 81 349 SamplerPhasor;
#X msg 612 226 1;
#X text 642 226 Set Sequence;
#X obj 21 695 filter~;
#X obj 83 575 *~;
#X obj 33 983 dac~;
#X obj 200 349 adsr~;
#X obj 154 572 *~;
#X text 361 48 TEMPO;
#X obj 364 69 loadbang;
#X text 418 70 default BPM;
#X msg 364 90 128;
#X text 393 90 default 128;
#X floatatom 364 114 5 40 240 0 - - -;
#X text 398 112 BPM;
#X obj 292 784 snapshot~;
#X obj 292 811 print;
#X obj 292 757 metro 500;
#X obj 292 732 tgl 15 0 empty empty empty 17 7 0 10 -262144 -1 -1 0
1;
#X obj 547 584 adsr~;
#X text 204 330 VCA;
#X text 546 561 Filter Envelope;
#X connect 0 0 24 1;
#X connect 1 0 24 2;
#X connect 2 0 24 3;
#X connect 3 0 24 4;
#X connect 4 0 24 5;
#X connect 5 0 24 6;
#X connect 6 0 24 7;
#X connect 7 0 24 8;
#X connect 8 0 24 9;
#X connect 9 0 24 10;
#X connect 10 0 24 11;
#X connect 11 0 24 12;
#X connect 12 0 24 13;
#X connect 13 0 24 14;
#X connect 14 0 24 15;
#X connect 15 0 24 16;
#X connect 17 0 16 0;
#X connect 17 0 24 0;
#X connect 18 0 17 2;
#X connect 22 0 17 1;
#X connect 23 0 17 0;
#X connect 24 0 33 0;
#X connect 24 0 27 0;
#X connect 24 0 46 0;
#X connect 25 0 15 0;
#X connect 25 0 14 0;
#X connect 25 0 13 0;
#X connect 25 0 12 0;
#X connect 25 0 11 0;
#X connect 25 0 10 0;
#X connect 25 0 9 0;
#X connect 25 0 8 0;
#X connect 25 0 7 0;
#X connect 25 0 6 0;
#X connect 25 0 5 0;
#X connect 25 0 4 0;
#X connect 25 0 3 0;
#X connect 25 0 2 0;
#X connect 25 0 1 0;
#X connect 25 0 0 0;
#X connect 27 0 31 0;
#X connect 27 1 34 0;
#X connect 28 0 0 0;
#X connect 28 0 1 0;
#X connect 28 0 2 0;
#X connect 28 0 3 0;
#X connect 28 0 4 0;
#X connect 28 0 5 0;
#X connect 28 0 6 0;
#X connect 28 0 7 0;
#X connect 28 0 8 0;
#X connect 28 0 9 0;
#X connect 28 0 10 0;
#X connect 28 0 11 0;
#X connect 28 0 12 0;
#X connect 28 0 13 0;
#X connect 28 0 14 0;
#X connect 28 0 15 0;
#X connect 30 0 32 0;
#X connect 30 0 32 1;
#X connect 31 0 30 0;
#X connect 33 0 31 1;
#X connect 33 0 34 1;
#X connect 34 0 30 0;
#X connect 36 0 38 0;
#X connect 38 0 40 0;
#X connect 40 0 17 3;
#X connect 42 0 30 1;
#X connect 42 0 43 0;
#X connect 44 0 42 0;
#X connect 45 0 44 0;
#X connect 46 0 42 0;
#X coords 0 0 1 1 85 60 0;
