#N canvas 92 60 806 509 10;
#X obj 300 71 bng 15 250 50 0 empty empty empty 17 7 0 10 -262144 -1
-1;
#X msg 300 116 read -resize \$1 Sample_L Sample_R;
#X obj 300 140 soundfiler;
#X obj 300 91 openpanel;
#X obj 147 363 dac~;
#X obj 162 177 line~;
#X obj 162 205 tabread4~ Sample_L;
#X obj 147 258 *~;
#X obj 162 61 bng 15 250 50 0 empty empty empty 17 7 0 10 -4034 -1
-1;
#X obj 162 88 t b b;
#X obj 53 181 line~;
#X obj 162 119 del 5;
#X msg 96 156 1 5;
#X msg 53 156 0 5;
#X msg 162 150 1 \, 4.41e+08 1e+07;
#X obj 183 228 tabread4~ Sample_R;
#X obj 168 258 *~;
#X text 137 22 Simple Sampler;
#N canvas 0 22 450 278 (subpatch) 0;
#X array Sample_R 12089 float 2;
#X coords 0 1 12089 -1 200 140 1 0 0;
#X restore 525 229 graph;
#N canvas 0 22 450 278 (subpatch) 0;
#X array Sample_L 12089 float 2;
#X coords 0 1 12089 -1 200 140 1;
#X restore 525 66 graph;
#X connect 0 0 3 0;
#X connect 1 0 2 0;
#X connect 3 0 1 0;
#X connect 5 0 6 0;
#X connect 5 0 15 0;
#X connect 6 0 7 1;
#X connect 7 0 4 0;
#X connect 8 0 9 0;
#X connect 9 0 11 0;
#X connect 9 1 13 0;
#X connect 10 0 7 0;
#X connect 10 0 16 0;
#X connect 11 0 12 0;
#X connect 11 0 14 0;
#X connect 12 0 10 0;
#X connect 13 0 10 0;
#X connect 14 0 5 0;
#X connect 15 0 16 1;
#X connect 16 0 4 1;
