#N canvas 30 23 1336 944 10;
#X obj 768 64 bng 15 250 50 0 empty empty empty 17 7 0 10 -262144 -1
-1;
#X obj 771 222 soundfiler;
#X obj 768 84 openpanel;
#X obj 454 160 expr 44100 / $f1;
#X floatatom 454 185 20 0 0 0 - - -;
#X obj 454 461 phasor~;
#X obj 454 509 *~;
#X obj 737 554 snapshot~;
#X obj 736 527 metro 50;
#X obj 736 504 tgl 15 0 empty empty empty 17 7 0 10 -262144 -1 -1 1
1;
#X floatatom 737 579 20 0 0 0 - - -;
#X obj 737 624 /;
#X floatatom 737 648 5 0 0 0 - - -;
#X obj 1080 776 hsl 200 20 0 1 0 0 empty empty empty -2 -8 0 10 -262144
-1 -1 5 1;
#X msg 494 435 0;
#X obj 227 54 bng 15 250 50 0 empty empty empty 17 7 0 10 -4034 -1
-1;
#X obj 196 290 del \$1;
#X obj 196 310 bng 15 250 50 0 empty empty empty 17 7 0 10 -262144
-1 -1;
#X floatatom 196 271 20 0 0 0 - - -;
#X floatatom 196 230 15 0 0 0 - - -;
#X obj 227 151 t b b b b b;
#X floatatom 454 235 20 0 0 0 - - -;
#X obj 227 96 t b b;
#X obj 22 322 line~;
#X obj 388 640 *~;
#X obj 420 640 *~;
#X obj 227 123 del 5;
#X msg 65 297 1 5;
#X msg 22 297 0 5;
#X obj 196 330 t b b;
#X obj 196 355 del 5;
#X obj 196 250 expr ((1000.0 / 44100) * $f1) - 5;
#X text 429 -28 Sampler Using Phasor;
#X text 178 54 Play;
#X text 726 62 Load;
#X obj 227 17 inlet;
#X msg 862 81 open Kick.wav;
#X msg 872 102 open Snare.wav;
#X obj 454 207 v \$0-PlaybackSpeed;
#X obj 771 245 s \$0-sampleSize;
#X obj 454 133 r \$0-sampleSize;
#X obj 196 206 r \$0-sampleSize;
#X obj 469 484 r \$0-sampleSize;
#X obj 752 602 r \$0-sampleSize;
#X obj 771 175 pack s \$0;
#N canvas 0 22 450 278 (subpatch) 0;
#X array \$0-SampleR 96553 float 2;
#X coords 0 1 96553 -1 200 140 1 0 0;
#X restore 1080 628 graph;
#N canvas 0 22 450 278 (subpatch) 0;
#X array \$0-SampleL 96553 float 2;
#X coords 0 1 96553 -1 200 140 1 0 0;
#X restore 1080 465 graph;
#X obj 387 553 tabread4~ \$0-SampleL;
#X obj 419 579 tabread4~ \$0-SampleR;
#X msg 771 198 read -resize \$1 \$2-SampleL \$2-SampleR;
#X text 583 184 samp. rate / samples;
#X text 873 245 sends size of sample;
#X text 840 175 pack into a string as a local variable;
#X obj 1085 282 print;
#X obj 609 244 print;
#X text 559 160 rate to read tables w/ phasor;
#X text 1008 198 read open panel \, resize table and read into SampleL/R
;
#X text 480 507 audio mult. with sample size;
#X text 520 553 read first table;
#X text 552 579 read second table;
#X text 447 640 final gain stage;
#X text 504 460 generates sawtooth wave w/ rate given (cycles/sec)
;
#X text 798 527 sets rate of snapshot;
#X text 757 503 turns snapshot on;
#X text 776 649 # between 0 & 1 for where in sample we are;
#X obj 592 327 hsl 128 15 -10 10 0 0 empty empty empty -2 -8 0 10 -262144
-1 -1 9485 1;
#X msg 589 290 4.9373;
#X floatatom 590 358 5 0 0 0 - - -;
#X text 628 358 to see results;
#X floatatom 515 303 5 0 0 0 - - -;
#X obj 280 417 hsl 128 15 -1 1 0 0 empty empty empty -2 -8 0 10 -262144
-1 -1 0 1;
#X text 526 435 start phase (beginning) at 0;
#X text 524 412 rate (pitch) to play phasor;
#X text 216 310 triggers when sample ends;
#X obj 340 694 outlet~ samplerL;
#X obj 453 694 outlet~ samplerR;
#X msg 494 412 0;
#X connect 0 0 2 0;
#X connect 1 0 39 0;
#X connect 2 0 44 0;
#X connect 2 0 53 0;
#X connect 3 0 4 0;
#X connect 4 0 38 0;
#X connect 5 0 6 0;
#X connect 6 0 7 0;
#X connect 6 0 47 0;
#X connect 6 0 48 0;
#X connect 7 0 10 0;
#X connect 8 0 7 0;
#X connect 9 0 8 0;
#X connect 10 0 11 0;
#X connect 11 0 12 0;
#X connect 12 0 13 0;
#X connect 14 0 5 1;
#X connect 15 0 22 0;
#X connect 16 0 17 0;
#X connect 17 0 29 0;
#X connect 18 0 16 0;
#X connect 19 0 31 0;
#X connect 20 1 19 0;
#X connect 20 2 38 0;
#X connect 20 3 14 0;
#X connect 20 4 76 0;
#X connect 21 0 5 0;
#X connect 22 0 26 0;
#X connect 22 1 28 0;
#X connect 23 0 24 1;
#X connect 23 0 25 1;
#X connect 24 0 74 0;
#X connect 25 0 75 0;
#X connect 26 0 20 0;
#X connect 26 0 27 0;
#X connect 27 0 23 0;
#X connect 28 0 23 0;
#X connect 29 0 30 0;
#X connect 29 1 28 0;
#X connect 30 0 76 0;
#X connect 31 0 18 0;
#X connect 35 0 15 0;
#X connect 36 0 44 0;
#X connect 37 0 44 0;
#X connect 38 0 21 0;
#X connect 40 0 3 0;
#X connect 40 0 54 0;
#X connect 41 0 19 0;
#X connect 42 0 6 1;
#X connect 43 0 11 1;
#X connect 44 0 49 0;
#X connect 47 0 24 0;
#X connect 48 0 25 0;
#X connect 49 0 1 0;
#X connect 65 0 67 0;
#X connect 66 0 65 0;
#X connect 70 0 5 0;
#X connect 76 0 5 0;
