#N canvas 631 52 1303 808 10;
#X obj 509 368 bng 25 250 50 0 empty empty empty 17 7 0 10 -262144
-1 -1;
#X obj 733 293 /;
#X msg 733 236 0.5;
#X msg 769 236 1;
#X msg 805 236 4;
#X msg 347 299 tempo \$1 permin;
#X msg 150 193 stop;
#X obj 285 392 i;
#X floatatom 284 423 5 0 0 0 - - -;
#X floatatom 208 545 5 0 0 0 - - -;
#X msg 217 192 0;
#X obj 335 390 + 1;
#X text 327 422 counts since start;
#X text 366 389 increment by 1;
#X text 310 528 count up to 8;
#X text 747 216 BEAT LENGTH;
#X floatatom 319 505 5 1 64 0 - - -;
#X text 353 506 length of sequence \, can change min/max in prop.;
#X obj 283 530 %;
#X obj 320 455 loadbang;
#X text 374 456 default seq. length;
#X text 349 476 default seq. 16 beats;
#X msg 320 479 16;
#X text 81 148 PLAY;
#X text 150 146 STOP;
#X text 216 145 RESET;
#X obj 282 572 outlet;
#X text 203 518 COUNT IN SEQ;
#X text 920 698 12.1.18 Reset "0" to % to restart count;
#X msg 733 267 1 \$1;
#X obj 305 352 metro 1 120 permin;
#X text 521 337 default to 1/16 per step;
#X obj 488 316 loadbang;
#X msg 488 338 0.25;
#X obj 347 166 inlet bpm;
#X obj 83 167 inlet play;
#X obj 150 167 inlet stop;
#X obj 217 167 inlet reset;
#X text 347 146 BPM;
#X connect 2 0 29 0;
#X connect 3 0 29 0;
#X connect 4 0 29 0;
#X connect 5 0 30 0;
#X connect 6 0 30 0;
#X connect 7 0 8 0;
#X connect 7 0 11 0;
#X connect 8 0 18 0;
#X connect 10 0 7 1;
#X connect 10 0 18 0;
#X connect 11 0 7 1;
#X connect 16 0 18 1;
#X connect 18 0 9 0;
#X connect 18 0 26 0;
#X connect 19 0 22 0;
#X connect 22 0 16 0;
#X connect 29 0 1 0;
#X connect 30 0 0 0;
#X connect 30 0 7 0;
#X connect 32 0 33 0;
#X connect 33 0 30 1;
#X connect 34 0 5 0;
#X connect 35 0 30 0;
#X connect 36 0 6 0;
#X connect 37 0 10 0;
