#N canvas 212 77 1309 868 10;
#X obj 218 633 *~ 0.5;
#X obj 218 693 outlet~ Reverb_Mixer_Out_L;
#X obj 217 146 inlet~ Reverb_Mixer_In_1_L;
#X obj 228 186 inlet~ Reverb_Mixer_In_2_L;
#X obj 236 226 inlet~ Reverb_Mixer_In_3_L;
#X obj 247 266 inlet~ Reverb_Mixer_In_4_L;
#X obj 262 633 *~ 0.5;
#X obj 263 713 outlet~ Reverb_Mixer_Out_R;
#X obj 222 165 inlet~ Reverb_Mixer_In_1_R;
#X obj 233 205 inlet~ Reverb_Mixer_In_2_R;
#X obj 241 245 inlet~ Reverb_Mixer_In_3_R;
#X obj 252 285 inlet~ Reverb_Mixer_In_4_R;
#X obj 254 308 inlet~ Reverb_Mixer_In_5_L;
#X obj 259 327 inlet~ Reverb_Mixer_In_5_R;
#X obj 265 348 inlet~ Reverb_Mixer_In_6_L;
#X obj 270 367 inlet~ Reverb_Mixer_In_6_R;
#X obj 273 388 inlet~ Reverb_Mixer_In_7_L;
#X obj 278 407 inlet~ Reverb_Mixer_In_7_R;
#X obj 284 428 inlet~ Reverb_Mixer_In_8_L;
#X obj 289 447 inlet~ Reverb_Mixer_In_8_R;
#X obj 294 469 inlet~ Reverb_Mixer_In_9_L;
#X obj 299 488 inlet~ Reverb_Mixer_In_9_R;
#X obj 305 509 inlet~ Reverb_Mixer_In_10_L;
#X obj 310 528 inlet~ Reverb_Mixer_In_10_R;
#X obj 313 549 inlet~ Reverb_Mixer_In_11_L;
#X obj 318 568 inlet~ Reverb_Mixer_In_11_R;
#X obj 324 589 inlet~ Reverb_Mixer_In_12_L;
#X obj 329 608 inlet~ Reverb_Mixer_In_12_R;
#X connect 0 0 1 0;
#X connect 2 0 0 0;
#X connect 3 0 0 0;
#X connect 4 0 0 0;
#X connect 5 0 0 0;
#X connect 6 0 7 0;
#X connect 8 0 6 0;
#X connect 9 0 6 0;
#X connect 10 0 6 0;
#X connect 11 0 6 0;
#X connect 12 0 0 0;
#X connect 13 0 6 0;
#X connect 14 0 0 0;
#X connect 15 0 6 0;
#X connect 16 0 0 0;
#X connect 17 0 6 0;
#X connect 18 0 0 0;
#X connect 19 0 6 0;
#X connect 20 0 0 0;
#X connect 21 0 6 0;
#X connect 22 0 0 0;
#X connect 23 0 6 0;
#X connect 24 0 0 0;
#X connect 25 0 6 0;
#X connect 26 0 0 0;
#X connect 27 0 6 0;
