#N canvas 149 59 1449 884 10;
#X obj 345 772 switch~;
#X obj 687 178 tgl 15 0 empty empty empty 0 -6 0 8 -262144 -1 -1 0
1;
#X obj 163 445 metro 1451.25;
#N canvas 0 50 450 300 (subpatch) 0;
#X array \$0-adsr_envelope 11000 float 0;
#X coords 0 1 10999 0 500 125 1 0 0;
#X restore 799 530 graph;
#X obj 401 750 tgl 15 0 empty empty empty 0 -6 0 8 -262144 -1 -1 0
1;
#X obj 750 336 loadbang;
#X msg 733 474 261;
#X floatatom 924 395 5 0 0 0 - - -, f 5;
#X msg 924 365 set 11025;
#X obj 259 689 pack 51 87 31 261;
#X obj 259 659 f 51;
#X obj 238 413 * 64;
#X obj 238 383 / 44.1;
#X msg 238 353 1000;
#X floatatom 246 478 5 0 0 0 - - -, f 5;
#X msg 583 475 31;
#X obj 213 498 del 80;
#X msg 633 476 35;
#X text 707 177 a) start triggering;
#X text 207 335 blockligned;
#X text 811 337 b) play with the adsr parameter;
#X text 875 459 c) adjust tablesize to adsr duration for better visualization
;
#X text 412 768 optional switch to save cpu;
#X text 226 514 retriggering is clickfree;
#X text 266 716 attack(ms) decay(ms) sustain(%) release(ms);
#N canvas 260 60 609 699 vadsr2 0;
#X obj 147 485 vline~;
#X obj 29 425 vline~;
#X obj 147 515 dbtorms~;
#X obj 29 455 dbtorms~;
#X obj 13 515 -~;
#X obj 13 485 sig~ 1;
#X obj 152 172 rmstodb;
#X obj 86 112 max 0.1;
#X obj 333 126 max 0.1;
#X obj 145 219 t b f;
#X obj 29 22 inlet;
#X obj 84 637 outlet~;
#X obj 375 562 outlet;
#X obj 375 502 f 1;
#X obj 415 502 f 0;
#X obj 415 472 del 500;
#X msg 415 442 stop;
#X obj 376 412 t b b b;
#X text 39 319 attack decay sustain hold release;
#X obj 29 345 t a a b;
#X obj 152 142 * 0.01;
#X obj 152 112 clip 0 100;
#X obj 464 383 t b f;
#X obj 454 412 + 16;
#X obj 125 249 + 4;
#X obj 29 52 unpack f f f f;
#X obj 29 142 t a a;
#X text 79 22 attack(ms) decay(ms) sustain(%) release(ms);
#X obj 29 295 pack f f f f f;
#X obj 375 532 change 0;
#X obj 29 112 max 0;
#X msg 29 395 60 \$1 0 \, 100 0 \$1;
#X obj 147 425 t a b;
#X msg 147 455 0 \, 100 0 \$1 \, \$3 \$2 \$1 \, 0 \$5 \$4;
#X obj 214 553 snapshot~;
#X obj 214 613 -;
#X obj 214 643 rmstodb;
#X msg 214 583 1 \$1;
#X msg 397 22 version 2.0.0;
#X connect 0 0 2 0;
#X connect 1 0 3 0;
#X connect 2 0 11 0;
#X connect 2 0 34 0;
#X connect 3 0 4 1;
#X connect 4 0 11 0;
#X connect 4 0 34 0;
#X connect 5 0 4 0;
#X connect 6 0 28 2;
#X connect 7 0 9 0;
#X connect 7 0 28 1;
#X connect 8 0 22 0;
#X connect 8 0 28 4;
#X connect 9 0 24 0;
#X connect 9 1 24 1;
#X connect 10 0 25 0;
#X connect 13 0 29 0;
#X connect 14 0 29 0;
#X connect 15 0 14 0;
#X connect 16 0 15 0;
#X connect 17 0 15 0;
#X connect 17 1 13 0;
#X connect 17 2 16 0;
#X connect 19 0 31 0;
#X connect 19 1 32 0;
#X connect 19 2 17 0;
#X connect 20 0 6 0;
#X connect 21 0 20 0;
#X connect 22 0 23 0;
#X connect 22 1 23 1;
#X connect 23 0 15 1;
#X connect 24 0 23 0;
#X connect 24 0 28 3;
#X connect 25 0 30 0;
#X connect 25 1 7 0;
#X connect 25 2 21 0;
#X connect 25 3 8 0;
#X connect 26 0 28 0;
#X connect 26 1 24 0;
#X connect 28 0 19 0;
#X connect 29 0 12 0;
#X connect 30 0 26 0;
#X connect 31 0 1 0;
#X connect 32 0 33 0;
#X connect 32 1 34 0;
#X connect 33 0 0 0;
#X connect 34 0 37 0;
#X connect 35 0 36 0;
#X connect 36 0 1 0;
#X connect 37 0 35 0;
#X restore 259 736 pd vadsr2;
#X text 701 198 and turn on compute audio;
#X obj 27 769 outlet~ adsr_output;
#X obj 165 212 inlet adsr_trigger;
#X obj 162 771 tabwrite~ \$0-adsr_envelope;
#X text 749 317 Load initial parameters;
#X obj 618 531 vsl 15 128 10 5000 0 0 empty empty empty 0 -9 0 10 -262144
-1 -1 53 1;
#X obj 664 531 vsl 15 128 5 2000 0 0 empty empty empty 0 -9 0 10 -262144
-1 -1 191 1;
#X obj 710 531 vsl 15 128 0 100 0 0 empty empty empty 0 -9 0 10 -262144
-1 -1 12700 1;
#X obj 756 531 vsl 15 128 10 5000 0 0 empty empty empty 0 -9 0 10 -262144
-1 -1 639 1;
#X text 619 508 A;
#X text 665 507 D;
#X text 712 508 S;
#X text 758 507 R;
#X msg 687 474 100;
#X msg 924 425 \; \$0-adsr_envelope resize \$1;
#X msg 347 828 \$0-adsr_envelope resize \$1;
#X connect 2 0 10 0;
#X connect 2 0 29 0;
#X connect 2 0 16 0;
#X connect 5 0 39 0;
#X connect 5 0 13 0;
#X connect 5 0 6 0;
#X connect 5 0 17 0;
#X connect 5 0 15 0;
#X connect 5 0 8 0;
#X connect 6 0 34 0;
#X connect 7 0 40 0;
#X connect 8 0 7 0;
#X connect 9 0 25 0;
#X connect 10 0 9 0;
#X connect 11 0 2 1;
#X connect 12 0 11 0;
#X connect 13 0 12 0;
#X connect 14 0 16 1;
#X connect 15 0 31 0;
#X connect 17 0 32 0;
#X connect 25 0 27 0;
#X connect 25 0 29 0;
#X connect 25 1 0 0;
#X connect 25 1 4 0;
#X connect 25 1 41 0;
#X connect 28 0 2 0;
#X connect 31 0 10 1;
#X connect 32 0 9 1;
#X connect 33 0 9 2;
#X connect 34 0 9 3;
#X connect 39 0 33 0;
#X coords 0 -1 1 1 190 175 1 600 500;
