#N canvas 201 23 854 945 10;
#X obj 296 37 inlet trig;
#X obj 297 336 sel 0;
#X msg 297 372 stop;
#X obj 396 360 t b;
#X text 477 69 Attack Speed;
#X text 397 70 Attack Level;
#X obj 552 409 del \$2;
#X text 591 67 Decay Speed;
#X obj 552 459 f \$4;
#X obj 552 517 * 0.01;
#X obj 443 664 pack 0 \$2;
#X obj 553 664 pack 0 \$3;
#X obj 672 664 pack 0 \$5;
#X obj 553 712 line~;
#X text 655 389 Sustain %;
#X text 740 610 Release Speed;
#X obj 553 809 outlet~;
#X text 616 514 Derive sustain level as % of attack;
#X text 114 392 If 0 \, stop attack and trigger release;
#X text 448 645 Attack;
#X text 559 644 Decay;
#X text 676 646 Sustain;
#X text 152 511 Store attack level either arg. or inlet;
#X text 275 5 Sending 1 = begin attack Sending 0 = release;
#X obj 124 147 vsl 15 128 10 2000 0 0 empty empty empty 0 -9 0 10 -262144
-1 -1 0 1;
#X obj 170 147 vsl 15 128 5 2000 0 0 empty empty empty 0 -9 0 10 -262144
-1 -1 0 1;
#X obj 216 147 vsl 15 128 0 100 0 0 empty empty empty 0 -9 0 10 -262144
-1 -1 0 1;
#X obj 262 147 vsl 15 128 10 5000 0 0 empty empty empty 0 -9 0 10 -262144
-1 -1 0 1;
#X text 125 124 A;
#X text 171 123 D;
#X text 218 124 S;
#X text 264 123 R;
#X obj 552 756 *~;
#X msg 630 723 0.1;
#X obj 630 702 loadbang;
#X connect 0 0 1 0;
#X connect 1 0 2 0;
#X connect 1 0 12 0;
#X connect 1 1 3 0;
#X connect 2 0 6 0;
#X connect 3 0 6 0;
#X connect 3 0 10 0;
#X connect 6 0 8 0;
#X connect 8 0 9 0;
#X connect 9 0 11 0;
#X connect 10 0 13 0;
#X connect 11 0 13 0;
#X connect 12 0 13 0;
#X connect 13 0 32 0;
#X connect 24 0 10 1;
#X connect 24 0 6 1;
#X connect 25 0 11 1;
#X connect 26 0 8 0;
#X connect 27 0 12 1;
#X connect 32 0 16 0;
#X connect 33 0 32 1;
#X connect 34 0 33 0;
#X coords 0 -1 1 1 200 200 1 100 100;
