#N canvas 473 72 666 560 10;
#X obj 224 139 vsl 15 128 0 1 0 0 empty empty empty 0 -9 0 10 -262144
-1 -1 0 1;
#X obj 195 319 *~;
#X floatatom 240 269 5 0 0 0 - - -;
#X obj 204 340 *~;
#X obj 23 304 inlet~ \$0-Reverb_Send_L_In;
#X obj 27 325 inlet~ \$0-Reverb_Send_R_In;
#X obj 204 462 outlet~ \$0-Reverb_Send_L_Out;
#X obj 195 483 outlet~ \$0-Reverb_Send_R_Out;
#X obj 279 139 vsl 15 128 0 1 0 0 empty empty empty 0 -9 0 10 -262144
-1 -1 0 1;
#X obj 474 318 *~;
#X floatatom 295 269 5 0 0 0 - - -;
#X obj 483 339 *~;
#X text 269 121 DELAY;
#X text 212 121 REVERB;
#X obj 483 461 outlet~ \$0-Delay_Send_L_Out;
#X obj 474 482 outlet~ \$0-Delay_Send_R_Out;
#X connect 0 0 1 1;
#X connect 0 0 2 0;
#X connect 0 0 3 1;
#X connect 1 0 7 0;
#X connect 3 0 6 0;
#X connect 4 0 1 0;
#X connect 4 0 9 0;
#X connect 5 0 3 0;
#X connect 5 0 11 0;
#X connect 8 0 9 1;
#X connect 8 0 10 0;
#X connect 8 0 11 1;
#X connect 9 0 15 0;
#X connect 11 0 14 0;
#X coords 0 -1 1 1 150 200 1 200 100;
