#N canvas 0 23 1680 959 10;
#X obj 231 25 tgl 15 0 empty empty empty 17 7 0 10 -262144 -1 -1 0
1;
#X obj 341 140 nbx 5 14 0 1e+37 0 1 empty empty Notelength 0 -8 0 10
-262144 -1 -1 210 256;
#X obj 318 110 nbx 5 14 0 127 0 1 empty empty Velocity 0 -8 0 10 -262144
-1 -1 127 256;
#X obj 296 80 nbx 5 14 0 127 0 1 empty empty Transpose 0 -8 0 10 -262144
-1 -1 79 256;
#X obj 287 184 makenote;
#X floatatom 243 216 5 0 0 0 Transpose - -;
#X floatatom 368 208 5 0 0 1 Velocity/Length - -;
#X obj 287 158 f, f 2;
#X obj 309 158 f, f 2;
#X obj 332 158 f, f 2;
#X obj 231 121 t b b b;
#X obj 577 275 nbx 5 14 0 1000 0 1 empty empty empty 0 -8 0 10 -262144
-1 -1 2 256;
#X obj 581 291 nbx 5 14 0 1000 0 1 empty empty empty 0 -8 0 10 -262144
-1 -1 1000 256;
#X obj 585 307 nbx 5 14 0 100 0 1 empty empty empty 0 -8 0 10 -262144
-1 -1 100 256;
#X obj 590 323 nbx 5 14 0 1000 0 1 empty empty empty 0 -8 0 10 -262144
-1 -1 326 256;
#X text 647 274 Attack;
#X text 647 289 Decay;
#X text 647 306 Sustain;
#X obj 205 67 bng 15 250 50 0 empty empty empty 17 7 0 10 -262144 -1
-1;
#X obj 258 28 nbx 5 14 0 1000 0 1 empty empty empty 0 -8 0 10 -262144
-1 -1 1000 256;
#X obj 231 50 metro;
#X obj 317 573 *~;
#X obj 312 622 dac~ 1 2;
#X obj 317 410 osc~ 440;
#X obj 332 257 > 0;
#X obj 287 393 mtof;
#X floatatom 400 279 5 0 0 0 - - -;
#X text 85 184 (Right click to see help file) >>;
#X msg 191 505 1;
#X text 648 323 Release;
#X obj 104 488 loadbang;
#X text 115 505 Peak of adsr;
#X text 161 25 Start metro;
#X floatatom 400 305 5 0 0 0 - - -;
#X obj 359 283 / 127;
#X text 28 262 Trigger envelope when velocity is higher than zero;
#X text 67 283 Turn velocity 0-127 into a value between 0 and 1;
#X text 223 574 Envelope on/off;
#X obj 344 333 sel 1;
#X obj 344 355 f;
#X obj 317 552 *~, f 5;
#X obj 332 232 t f f;
#X text 265 552 Velocity;
#X text 64 330 Trigger velocity only when a note is triggered;
#X text 191 395 Test synth;
#X floatatom 409 377 5 0 0 0 - - -;
#X obj 389 353 bng 15 250 50 0 empty empty empty 17 7 0 10 -262144
-1 -1;
#X obj 409 396 bng 15 250 50 0 empty empty empty 17 7 0 10 -262144
-1 -1;
#X obj 541 413 adsrold~;
#X obj 317 596 *~ 0.5;
#X connect 0 0 20 0;
#X connect 1 0 9 1;
#X connect 2 0 8 1;
#X connect 3 0 7 1;
#X connect 4 0 5 0;
#X connect 4 0 25 0;
#X connect 4 1 6 0;
#X connect 4 1 41 0;
#X connect 7 0 4 0;
#X connect 8 0 4 1;
#X connect 9 0 4 2;
#X connect 10 0 7 0;
#X connect 10 1 8 0;
#X connect 10 2 9 0;
#X connect 19 0 20 1;
#X connect 20 0 10 0;
#X connect 20 0 18 0;
#X connect 21 0 49 0;
#X connect 23 0 40 0;
#X connect 24 0 26 0;
#X connect 24 0 38 0;
#X connect 24 0 48 0;
#X connect 25 0 23 0;
#X connect 30 0 28 0;
#X connect 34 0 33 0;
#X connect 34 0 39 1;
#X connect 38 0 39 0;
#X connect 38 0 46 0;
#X connect 39 0 40 1;
#X connect 39 0 45 0;
#X connect 40 0 21 0;
#X connect 41 0 24 0;
#X connect 41 1 34 0;
#X connect 45 0 47 0;
#X connect 48 0 21 1;
#X connect 49 0 22 0;
#X connect 49 0 22 1;
