#N canvas 212 107 1606 941 10;
#X floatatom 569 252 0 0 0 0 - - -;
#X floatatom 658 316 0 0 0 0 - - -;
#X obj 451 183 vradio 15 1 1 4 empty empty empty 0 -8 0 10 -228856
-1 -1 0;
#X text 401 182 lowpass;
#X text 395 198 highpass;
#X text 395 213 bandpass;
#X text 413 228 notch;
#X obj 451 379 + 1;
#X obj 111 169 hsl 128 15 0 3.99 0 0 empty empty empty -2 -8 0 10 -262144
-1 -1 0 1;
#X text 106 134 Filter Type;
#X obj 112 237 hsl 128 15 20 20000 1 0 empty empty empty -2 -8 0 10
-262144 -1 -1 0 1;
#X text 107 201 Cutoff Frequency;
#X obj 112 303 hsl 128 15 0 1 0 0 empty empty empty -2 -8 0 10 -262144
-1 -1 0 1;
#X text 107 268 Resonance;
#X text 571 408 Selects between 4 types of filters;
#X floatatom 144 416 5 0 0 0 - - -, f 5;
#X obj 144 463 sel 1 2 3 4;
#X obj 144 393 int;
#X obj 144 439 change;
#X msg 131 511 Highpass;
#X msg 191 511 Bandpass;
#X msg 251 511 Notch;
#X obj 141 484 bng 15 250 50 0 empty empty empty 17 7 0 10 -262144
-1 -1;
#X obj 158 484 bng 15 250 50 0 empty empty empty 17 7 0 10 -262144
-1 -1;
#X obj 176 484 bng 15 250 50 0 empty empty empty 17 7 0 10 -262144
-1 -1;
#X obj 193 484 bng 15 250 50 0 empty empty empty 17 7 0 10 -262144
-1 -1;
#X msg 77 511 Lowpass;
#X obj 260 104 symbol;
#X symbolatom 108 150 10 0 0 0 - - -, f 10;
#X text 187 438 Only output when change occurs;
#X text 187 391 Round to int;
#X text 187 413 Visual rounding;
#X text 222 463 Select between which message;
#X text 293 511 Possible messages;
#X floatatom 109 218 7 0 0 0 - - -, f 7;
#X floatatom 109 284 7 0 0 0 - - -, f 7;
#X obj 268 204 r \$0-cutoff;
#X obj 268 270 r \$0-resonance;
#X obj 664 335 s \$0-resonance;
#X obj 575 271 s \$0-cutoff;
#X obj 260 78 r \$0-filtertype;
#X obj 77 550 s \$0-filtertype;
#X floatatom 967 252 0 0 0 0 - - -;
#X floatatom 1056 316 0 0 0 0 - - -;
#X obj 849 183 vradio 15 1 1 4 empty empty empty 0 -8 0 10 -228856
-1 -1 0;
#X text 789 182 lowpass;
#X text 783 198 highpass;
#X text 783 213 bandpass;
#X text 801 228 notch;
#X obj 849 379 + 1;
#X text 1003 407 Selects between 4 types of filters;
#X obj 1062 335 s \$0-resonance;
#X obj 973 271 s \$0-cutoff;
#X obj 481 144 inlet~ audio_in_L;
#X obj 879 144 inlet~ audio_in_R;
#X obj 451 429 outlet~ audio_out_L;
#X obj 849 429 outlet~ audio_out_R;
#X obj 29 203 loadbang;
#X msg 29 223 20;
#X obj 880 379 svf~ 800 0.01 <linear>;
#X obj 452 406 selector~ 4 1;
#X obj 480 378 svf~ 800 0.01 <linear>;
#X obj 849 406 selector~ 4 1;
#X obj 1097 137 snapshot~;
#X obj 1037 85 tgl 15 0 empty empty empty 17 7 0 10 -262144 -1 -1 1
1;
#X obj 1103 177 *;
#X text 1129 176 mult. by 19 \, 800;
#X msg 1118 197 20;
#X obj 1101 218 +;
#X msg 1118 157 19980;
#X text 1126 216 add 20;
#X obj 1037 110 metro 1;
#X obj 1013 53 loadbang;
#X obj 1101 80 inlet~ cutoff;
#X connect 0 0 39 0;
#X connect 0 0 61 1;
#X connect 1 0 38 0;
#X connect 1 0 61 2;
#X connect 2 0 7 0;
#X connect 7 0 17 0;
#X connect 7 0 60 0;
#X connect 8 0 2 0;
#X connect 8 0 44 0;
#X connect 10 0 0 0;
#X connect 10 0 42 0;
#X connect 12 0 1 0;
#X connect 12 0 43 0;
#X connect 15 0 18 0;
#X connect 16 0 22 0;
#X connect 16 1 23 0;
#X connect 16 2 24 0;
#X connect 16 3 25 0;
#X connect 17 0 15 0;
#X connect 18 0 16 0;
#X connect 19 0 41 0;
#X connect 20 0 41 0;
#X connect 21 0 41 0;
#X connect 22 0 26 0;
#X connect 23 0 19 0;
#X connect 24 0 20 0;
#X connect 25 0 21 0;
#X connect 26 0 41 0;
#X connect 27 0 28 0;
#X connect 36 0 34 0;
#X connect 37 0 35 0;
#X connect 40 0 27 0;
#X connect 42 0 52 0;
#X connect 42 0 59 1;
#X connect 43 0 51 0;
#X connect 43 0 59 2;
#X connect 44 0 49 0;
#X connect 49 0 62 0;
#X connect 53 0 61 0;
#X connect 54 0 59 0;
#X connect 57 0 58 0;
#X connect 58 0 10 0;
#X connect 59 0 62 1;
#X connect 59 1 62 2;
#X connect 59 2 62 3;
#X connect 59 3 62 4;
#X connect 60 0 55 0;
#X connect 61 0 60 1;
#X connect 61 1 60 2;
#X connect 61 2 60 3;
#X connect 61 3 60 4;
#X connect 62 0 56 0;
#X connect 63 0 65 0;
#X connect 63 0 69 0;
#X connect 63 0 67 0;
#X connect 64 0 71 0;
#X connect 65 0 68 0;
#X connect 67 0 68 1;
#X connect 68 0 10 0;
#X connect 69 0 65 1;
#X connect 71 0 63 0;
#X connect 72 0 64 0;
#X connect 73 0 63 0;
#X coords 0 -1 1 1 150 250 1 100 100;
