#N canvas 48 70 1701 941 10;
#X obj 261 210 tgl 15 0 empty empty empty 17 7 0 10 -258113 -1 -1 1
1;
#X obj 278 210 tgl 15 0 empty empty empty 17 7 0 10 -262144 -1 -1 0
1;
#X obj 295 210 tgl 15 0 empty empty empty 17 7 0 10 -262144 -1 -1 1
1;
#X obj 312 210 tgl 15 0 empty empty empty 17 7 0 10 -262144 -1 -1 0
1;
#X obj 329 210 tgl 15 0 empty empty empty 17 7 0 10 -258113 -1 -1 0
1;
#X obj 346 210 tgl 15 0 empty empty empty 17 7 0 10 -262144 -1 -1 1
1;
#X obj 363 210 tgl 15 0 empty empty empty 17 7 0 10 -262144 -1 -1 0
1;
#X obj 380 210 tgl 15 0 empty empty empty 17 7 0 10 -262144 -1 -1 1
1;
#X obj 397 210 tgl 15 0 empty empty empty 17 7 0 10 -258113 -1 -1 1
1;
#X obj 414 210 tgl 15 0 empty empty empty 17 7 0 10 -262144 -1 -1 0
1;
#X obj 431 210 tgl 15 0 empty empty empty 17 7 0 10 -262144 -1 -1 0
1;
#X obj 448 210 tgl 15 0 empty empty empty 17 7 0 10 -262144 -1 -1 1
1;
#X obj 465 210 tgl 15 0 empty empty empty 17 7 0 10 -258113 -1 -1 0
1;
#X obj 482 210 tgl 15 0 empty empty empty 17 7 0 10 -262144 -1 -1 0
1;
#X obj 499 210 tgl 15 0 empty empty empty 17 7 0 10 -262144 -1 -1 1
1;
#X obj 516 210 tgl 15 0 empty empty empty 17 7 0 10 -262144 -1 -1 0
1;
#X obj 260 190 hradio 17 1 0 16 empty empty empty 0 -8 0 10 -262144
-1 -1 3;
#X obj 260 168 SequencerControl ~;
#X obj 331 69 bng 15 250 50 0 empty empty empty 17 7 0 10 -262144 -1
-1;
#X text 253 50 PLAY;
#X text 288 50 STOP;
#X text 321 49 RESET;
#X obj 295 70 bng 15 250 50 0 empty empty empty 17 7 0 10 -262144 -1
-1;
#X obj 260 69 bng 15 250 50 0 empty empty empty 17 7 0 10 -262144 -1
-1;
#X obj 80 223 SequencerChannel ~, f 25;
#X msg 613 195 0;
#X text 643 195 Clear Sequence;
#X obj 80 244 SamplerPhasor;
#X msg 613 176 1;
#X text 643 176 Set Sequence;
#X obj 756 476 *~;
#X obj 55 1138 dac~;
#X obj 783 475 *~;
#X text 361 48 TEMPO;
#X obj 364 69 loadbang;
#X text 418 70 default BPM;
#X msg 364 90 128;
#X text 393 90 default 128;
#X floatatom 364 114 5 40 240 0 - - -, f 5;
#X text 398 112 BPM;
#X obj 214 588 adsr~;
#X text 815 269 VCA;
#X text 243 480 Filter Envelope;
#X obj 93 437 dac~;
#X obj 814 289 adsr~;
#X obj 1026 726 12ChannelMixer, f 50;
#X obj 1026 511 EffectsSend;
#X obj 374 135 s Master_Tempo;
#X obj 613 141 r Master_Tempo;
#X obj 73 774 Filter~;
#X obj 1026 758 Reverb~;
#X obj 1191 759 Delay~;
#X obj 270 1094 dac~;
#X connect 0 0 24 1;
#X connect 1 0 24 2;
#X connect 2 0 24 3;
#X connect 3 0 24 4;
#X connect 4 0 24 5;
#X connect 5 0 24 6;
#X connect 6 0 24 7;
#X connect 7 0 24 8;
#X connect 8 0 24 9;
#X connect 9 0 24 10;
#X connect 10 0 24 11;
#X connect 11 0 24 12;
#X connect 12 0 24 13;
#X connect 13 0 24 14;
#X connect 14 0 24 15;
#X connect 15 0 24 16;
#X connect 17 0 16 0;
#X connect 17 0 24 0;
#X connect 18 0 17 2;
#X connect 22 0 17 1;
#X connect 23 0 17 0;
#X connect 24 0 27 0;
#X connect 24 0 40 0;
#X connect 25 0 15 0;
#X connect 25 0 14 0;
#X connect 25 0 13 0;
#X connect 25 0 12 0;
#X connect 25 0 11 0;
#X connect 25 0 10 0;
#X connect 25 0 9 0;
#X connect 25 0 8 0;
#X connect 25 0 7 0;
#X connect 25 0 6 0;
#X connect 25 0 5 0;
#X connect 25 0 4 0;
#X connect 25 0 3 0;
#X connect 25 0 2 0;
#X connect 25 0 1 0;
#X connect 25 0 0 0;
#X connect 27 0 49 0;
#X connect 27 0 46 0;
#X connect 27 1 49 1;
#X connect 27 1 46 1;
#X connect 28 0 0 0;
#X connect 28 0 1 0;
#X connect 28 0 2 0;
#X connect 28 0 3 0;
#X connect 28 0 4 0;
#X connect 28 0 5 0;
#X connect 28 0 6 0;
#X connect 28 0 7 0;
#X connect 28 0 8 0;
#X connect 28 0 9 0;
#X connect 28 0 10 0;
#X connect 28 0 11 0;
#X connect 28 0 12 0;
#X connect 28 0 13 0;
#X connect 28 0 14 0;
#X connect 28 0 15 0;
#X connect 34 0 36 0;
#X connect 36 0 38 0;
#X connect 38 0 17 3;
#X connect 38 0 47 0;
#X connect 44 0 30 1;
#X connect 44 0 32 1;
#X connect 45 0 50 0;
#X connect 45 1 50 1;
#X connect 46 0 45 0;
#X connect 46 1 45 1;
#X connect 46 2 51 0;
#X connect 46 3 51 1;
#X connect 49 0 31 0;
#X connect 49 1 31 1;
#X coords 0 0 1 1 85 60 0;
