#N canvas 499 100 1330 894 10;
#X obj 341 208 tgl 15 0 empty empty empty 17 7 0 10 -258113 -1 -1 0
1;
#X obj 358 208 tgl 15 0 empty empty empty 17 7 0 10 -262144 -1 -1 0
1;
#X obj 375 208 tgl 15 0 empty empty empty 17 7 0 10 -262144 -1 -1 0
1;
#X obj 392 208 tgl 15 0 empty empty empty 17 7 0 10 -262144 -1 -1 0
1;
#X obj 409 208 tgl 15 0 empty empty empty 17 7 0 10 -258113 -1 -1 0
1;
#X obj 426 208 tgl 15 0 empty empty empty 17 7 0 10 -262144 -1 -1 0
1;
#X obj 443 208 tgl 15 0 empty empty empty 17 7 0 10 -262144 -1 -1 0
1;
#X obj 460 208 tgl 15 0 empty empty empty 17 7 0 10 -262144 -1 -1 0
1;
#X obj 477 208 tgl 15 0 empty empty empty 17 7 0 10 -258113 -1 -1 0
1;
#X obj 494 208 tgl 15 0 empty empty empty 17 7 0 10 -262144 -1 -1 0
1;
#X obj 511 208 tgl 15 0 empty empty empty 17 7 0 10 -262144 -1 -1 0
1;
#X obj 528 208 tgl 15 0 empty empty empty 17 7 0 10 -262144 -1 -1 0
1;
#X obj 545 208 tgl 15 0 empty empty empty 17 7 0 10 -258113 -1 -1 0
1;
#X obj 562 208 tgl 15 0 empty empty empty 17 7 0 10 -262144 -1 -1 0
1;
#X obj 579 208 tgl 15 0 empty empty empty 17 7 0 10 -262144 -1 -1 0
1;
#X obj 596 208 tgl 15 0 empty empty empty 17 7 0 10 -262144 -1 -1 0
1;
#X obj 340 188 hradio 17 1 0 16 empty empty empty 0 -8 0 10 -262144
-1 -1 12;
#X obj 54 171 SequencerControl ~;
#X obj 136 78 bng 15 250 50 0 empty empty empty 17 7 0 10 -262144 -1
-1;
#X text 47 59 PLAY;
#X text 88 58 STOP;
#X text 126 58 RESET;
#X obj 95 78 bng 15 250 50 0 empty empty empty 17 7 0 10 -262144 -1
-1;
#X obj 54 78 bng 15 250 50 0 empty empty empty 17 7 0 10 -262144 -1
-1;
#X obj 54 223 SequencerChannel ~, f 25;
#X msg 693 194 0;
#X text 723 193 Clear Sequence;
#X obj 54 244 SamplerPhasor;
#X msg 693 174 1;
#X text 723 174 Set Sequence;
#X obj 54 897 *~;
#X obj 81 897 *~;
#X text 174 57 TEMPO;
#X obj 177 78 loadbang;
#X text 231 79 default BPM;
#X msg 177 99 128;
#X text 206 99 default 128;
#X floatatom 177 123 5 40 240 0 - - -, f 5;
#X text 211 121 BPM;
#X obj 215 528 adsr~;
#X obj 419 690 12ChannelMixer, f 50;
#X obj 419 475 EffectsSend;
#X obj 187 144 s Master_Tempo;
#X obj 844 199 r Master_Tempo;
#X obj 54 528 Filter~;
#X obj 419 722 Reverb~;
#X obj 584 723 Delay~;
#X obj 55 968 dac~;
#X obj 341 43 routeOSC /B0 /B1 /B2 /B3 /B4 /B5 /B6 /B7 /B8 /B9 /B10
/B11 /B12 /B13 /B14 /B15, f 78;
#X obj 341 21 unpackOSC;
#X obj 341 0 udpreceive 9001;
#X msg 650 282 disconnect;
#X obj 410 299 udpsend;
#X msg 410 240 send /test \$1;
#X obj 410 264 packOSC;
#X obj 410 324 tgl 15 0 empty empty empty 17 7 0 10 -262144 -1 -1 1
1;
#X msg 516 262 connect localhost 9002;
#X obj 54 17 unpackOSC;
#X obj 54 39 routeOSC /play /stop /reset;
#X obj 216 722 adsr~;
#X obj 516 240 routeOSC /connect /disconnect;
#X obj 740 374 tgl 15 0 empty empty empty 17 7 0 10 -262144 -1 -1 1
1;
#X obj 773 375 tgl 15 0 empty empty empty 17 7 0 10 -262144 -1 -1 1
1;
#X obj 804 376 tgl 15 0 empty empty empty 17 7 0 10 -262144 -1 -1 1
1;
#X obj 834 379 tgl 15 0 empty empty empty 17 7 0 10 -262144 -1 -1 1
1;
#X obj 676 342 routeOSC /T0 /T1 /T2 /T3 /T4 /T5 /T6 /T7 /T8 /T9 /T10
/T11;
#X obj 864 376 tgl 15 0 empty empty empty 17 7 0 10 -262144 -1 -1 1
1;
#X obj 890 379 tgl 15 0 empty empty empty 17 7 0 10 -262144 -1 -1 1
1;
#X obj 918 378 tgl 15 0 empty empty empty 17 7 0 10 -262144 -1 -1 1
1;
#X obj 945 377 tgl 15 0 empty empty empty 17 7 0 10 -262144 -1 -1 1
1;
#X obj 973 378 tgl 15 0 empty empty empty 17 7 0 10 -262144 -1 -1 1
1;
#X obj 1068 379 tgl 15 0 empty empty empty 17 7 0 10 -262144 -1 -1
1 1;
#X obj 1005 378 tgl 15 0 empty empty empty 17 7 0 10 -262144 -1 -1
0 1;
#X obj 1033 379 tgl 15 0 empty empty empty 17 7 0 10 -262144 -1 -1
0 1;
#X connect 0 0 24 1;
#X connect 1 0 24 2;
#X connect 2 0 24 3;
#X connect 3 0 24 4;
#X connect 4 0 24 5;
#X connect 5 0 24 6;
#X connect 6 0 24 7;
#X connect 7 0 24 8;
#X connect 8 0 24 9;
#X connect 9 0 24 10;
#X connect 10 0 24 11;
#X connect 11 0 24 12;
#X connect 12 0 24 13;
#X connect 13 0 24 14;
#X connect 14 0 24 15;
#X connect 15 0 24 16;
#X connect 16 0 53 0;
#X connect 17 0 16 0;
#X connect 17 0 24 0;
#X connect 18 0 17 2;
#X connect 22 0 17 1;
#X connect 23 0 17 0;
#X connect 24 0 27 0;
#X connect 24 0 39 0;
#X connect 24 0 59 0;
#X connect 25 0 15 0;
#X connect 25 0 14 0;
#X connect 25 0 13 0;
#X connect 25 0 12 0;
#X connect 25 0 11 0;
#X connect 25 0 10 0;
#X connect 25 0 9 0;
#X connect 25 0 8 0;
#X connect 25 0 7 0;
#X connect 25 0 6 0;
#X connect 25 0 5 0;
#X connect 25 0 4 0;
#X connect 25 0 3 0;
#X connect 25 0 2 0;
#X connect 25 0 1 0;
#X connect 25 0 0 0;
#X connect 27 0 41 0;
#X connect 27 0 44 0;
#X connect 27 1 41 1;
#X connect 27 1 44 1;
#X connect 28 0 0 0;
#X connect 28 0 1 0;
#X connect 28 0 2 0;
#X connect 28 0 3 0;
#X connect 28 0 4 0;
#X connect 28 0 5 0;
#X connect 28 0 6 0;
#X connect 28 0 7 0;
#X connect 28 0 8 0;
#X connect 28 0 9 0;
#X connect 28 0 10 0;
#X connect 28 0 11 0;
#X connect 28 0 12 0;
#X connect 28 0 13 0;
#X connect 28 0 14 0;
#X connect 28 0 15 0;
#X connect 30 0 47 0;
#X connect 31 0 47 1;
#X connect 33 0 35 0;
#X connect 35 0 37 0;
#X connect 37 0 17 3;
#X connect 37 0 42 0;
#X connect 39 0 44 2;
#X connect 40 0 45 0;
#X connect 40 1 45 1;
#X connect 41 0 40 0;
#X connect 41 1 40 1;
#X connect 41 2 46 0;
#X connect 41 3 46 1;
#X connect 44 0 30 0;
#X connect 44 1 31 0;
#X connect 48 0 0 0;
#X connect 48 1 1 0;
#X connect 48 2 2 0;
#X connect 48 3 3 0;
#X connect 48 4 4 0;
#X connect 48 5 5 0;
#X connect 48 6 6 0;
#X connect 48 7 7 0;
#X connect 48 8 8 0;
#X connect 48 9 9 0;
#X connect 48 10 10 0;
#X connect 48 11 11 0;
#X connect 48 12 12 0;
#X connect 48 13 13 0;
#X connect 48 14 14 0;
#X connect 48 15 15 0;
#X connect 49 0 48 0;
#X connect 49 0 60 0;
#X connect 49 0 65 0;
#X connect 50 0 49 0;
#X connect 50 0 57 0;
#X connect 51 0 52 0;
#X connect 52 0 55 0;
#X connect 53 0 54 0;
#X connect 54 0 52 0;
#X connect 56 0 52 0;
#X connect 57 0 58 0;
#X connect 58 0 23 0;
#X connect 58 1 22 0;
#X connect 58 2 18 0;
#X connect 59 0 30 1;
#X connect 59 0 31 1;
#X connect 60 0 56 0;
#X connect 60 1 51 0;
#X connect 65 0 61 0;
#X connect 65 1 62 0;
#X connect 65 2 63 0;
#X connect 65 3 64 0;
#X connect 65 4 66 0;
#X connect 65 5 67 0;
#X connect 65 6 68 0;
#X connect 65 7 69 0;
#X connect 65 8 70 0;
#X connect 65 9 72 0;
#X connect 65 10 73 0;
#X connect 65 11 71 0;
#X coords 0 0 1 1 85 60 0;
