#N canvas 2 115 1809 898 10;
#X obj 97 353 loadbang;
#X text 154 351 Default to 100% wet;
#X obj 6 122 inlet~ Reverb_L;
#X obj 30 142 inlet~ Reverb_R;
#X obj 100 394 hsl 128 15 0 1 0 0 empty empty empty -2 -8 0 10 -262144
-1 -1 0 1;
#X msg 97 374 0;
#X obj 504 446 vsl 15 128 0 1 0 0 empty empty empty 0 -9 0 10 -262144
-1 -1 12700 1;
#X floatatom 504 579 5 0 0 0 - - -, f 5;
#X text 496 429 LEVEL;
#X obj 420 446 vsl 15 128 0 1 0 0 empty empty empty 0 -9 0 10 -262144
-1 -1 12700 1;
#X floatatom 420 579 5 0 0 0 - - -, f 5;
#X text 412 429 SIZE;
#X obj 462 446 vsl 15 128 0 2.4 0 0 empty empty empty 0 -9 0 10 -262144
-1 -1 12700 1;
#X floatatom 462 579 5 0 0 0 - - -, f 5;
#X text 456 429 DAMP;
#X obj 504 349 loadbang;
#X msg 504 370 1;
#X text 534 369 Init. to Level at Max;
#X text 234 393 Convert message to float;
#X obj 4 724 dac~;
#X obj 4 676 *~;
#X obj 29 676 *~;
#X obj 6 209 +~;
#X obj 30 229 +~;
#X obj 88 257 bng 15 250 50 0 empty empty empty 17 7 0 10 -262144 -1
-1;
#X obj 93 184 r~ Delay_Reverb_Send;
#X obj 4 646 freeverb~;
#X msg 81 582 roomsize \$1;
#X msg 110 607 damping \$1;
#X connect 0 0 5 0;
#X connect 2 0 22 0;
#X connect 3 0 23 0;
#X connect 5 0 4 0;
#X connect 6 0 7 0;
#X connect 6 0 20 1;
#X connect 6 0 21 1;
#X connect 9 0 10 0;
#X connect 9 0 27 0;
#X connect 12 0 13 0;
#X connect 12 0 28 0;
#X connect 15 0 16 0;
#X connect 16 0 6 0;
#X connect 20 0 19 0;
#X connect 21 0 19 1;
#X connect 22 0 26 0;
#X connect 23 0 26 1;
#X connect 25 0 22 1;
#X connect 25 0 23 1;
#X connect 25 0 24 0;
#X connect 26 0 20 0;
#X connect 26 1 21 0;
#X connect 27 0 26 0;
#X connect 28 0 26 0;
#X coords 0 -1 1 1 150 200 1 400 400;
