#N canvas 0 23 1411 808 10;
#X obj 546 481 sel 0 1 2 3 4 5 6 7 8 9 10 11 12 13 14 15;
#X obj 546 509 spigot;
#X obj 562 530 spigot;
#X obj 577 552 spigot;
#X obj 592 573 spigot;
#X obj 607 509 spigot;
#X obj 622 530 spigot;
#X obj 637 552 spigot;
#X obj 653 573 spigot;
#X obj 668 511 spigot;
#X obj 683 532 spigot;
#X obj 698 554 spigot;
#X obj 714 575 spigot;
#X obj 728 511 spigot;
#X obj 744 532 spigot;
#X obj 759 554 spigot;
#X obj 774 575 spigot;
#X obj 550 631 t b;
#X text 535 106 SELECT;
#X obj 539 124 inlet Select;
#X obj 574 162 inlet Beat1;
#X obj 591 181 inlet Beat2;
#X obj 605 201 inlet Beat3;
#X obj 622 221 inlet Beat4;
#X obj 636 241 inlet Beat5;
#X obj 653 260 inlet Beat6;
#X obj 668 279 inlet Beat7;
#X obj 684 300 inlet Beat8;
#X obj 697 321 inlet Beat9;
#X obj 714 340 inlet Beat10;
#X obj 728 360 inlet Beat11;
#X obj 745 380 inlet Beat12;
#X obj 759 400 inlet Beat13;
#X obj 776 419 inlet Beat14;
#X obj 791 438 inlet Beat15;
#X obj 807 459 inlet Beat16;
#X obj 550 656 outlet;
#X text 571 142 BEATS 1-16;
#X text 594 656 SAMPLE TRIGGER;
#X connect 0 0 1 0;
#X connect 0 1 2 0;
#X connect 0 2 3 0;
#X connect 0 3 4 0;
#X connect 0 4 5 0;
#X connect 0 5 6 0;
#X connect 0 6 7 0;
#X connect 0 7 8 0;
#X connect 0 8 9 0;
#X connect 0 9 10 0;
#X connect 0 10 11 0;
#X connect 0 11 12 0;
#X connect 0 12 13 0;
#X connect 0 13 14 0;
#X connect 0 14 15 0;
#X connect 0 15 16 0;
#X connect 1 0 17 0;
#X connect 2 0 17 0;
#X connect 3 0 17 0;
#X connect 4 0 17 0;
#X connect 5 0 17 0;
#X connect 6 0 17 0;
#X connect 7 0 17 0;
#X connect 8 0 17 0;
#X connect 9 0 17 0;
#X connect 10 0 17 0;
#X connect 11 0 17 0;
#X connect 12 0 17 0;
#X connect 13 0 17 0;
#X connect 14 0 17 0;
#X connect 15 0 17 0;
#X connect 16 0 17 0;
#X connect 17 0 36 0;
#X connect 19 0 0 0;
#X connect 20 0 1 1;
#X connect 21 0 2 1;
#X connect 22 0 3 1;
#X connect 23 0 4 1;
#X connect 24 0 5 1;
#X connect 25 0 6 1;
#X connect 26 0 7 1;
#X connect 27 0 8 1;
#X connect 28 0 9 1;
#X connect 29 0 10 1;
#X connect 30 0 11 1;
#X connect 31 0 12 1;
#X connect 32 0 13 1;
#X connect 33 0 14 1;
#X connect 34 0 15 1;
#X connect 35 0 16 1;
