#N canvas 0 50 450 300 10;
#X obj 3 35 cnv 15 150 20 empty empty UberDelay_vBeta 0 10 0 14 -4160
-228856 0;
#X obj 348 170 +~;
#X obj 385 245 delwrite~ \$0-delay 5890;
#X obj 384 278 delread~ \$0-delay;
#X obj 9 187 hsl 128 15 0 10 0 0 empty empty Feedback -2 -8 0 10 -262144
-1 -1 6350 1;
#X floatatom 144 187 5 0 0 0 - - -, f 5;
#X floatatom 466 332 5 0 0 1 feedback - -, f 5;
#X obj 466 310 / 10;
#X obj 8 121 hsl 128 15 0 10 0 0 empty empty LowCutFilter -2 -8 0 10
-262144 -1 -1 6350 1;
#X floatatom 143 121 5 0 0 0 - - -, f 5;
#X obj 8 154 hsl 128 15 0 10 0 0 empty empty HighCutFilter -2 -8 0
10 -262144 -1 -1 6350 1;
#X floatatom 143 154 5 0 0 0 - - -, f 5;
#X obj 469 193 +~;
#X obj 469 215 *~ 0.5;
#X obj 422 169 lop~;
#X obj 512 168 hip~;
#X obj 384 309 *~;
#X obj 513 108 * 100;
#X floatatom 513 130 5 0 0 0 HPF - -, f 5;
#X floatatom 420 130 5 0 0 0 LPF - -, f 5;
#X obj 420 61 abs;
#X obj 420 34 - 10;
#X obj 384 10 inlet~;
#X obj 420 87 * 1000;
#X obj 420 109 + 1000;
#X obj 9 87 hsl 128 15 1 696 0 0 empty empty DelayTime -2 -8 0 10 -262144
-1 -1 73 1;
#X floatatom 144 87 5 0 0 0 - - -, f 5;
#X obj 9 241 hsl 128 15 0 10 0 0 empty empty Speed -2 -8 0 10 -262144
-1 -1 6350 1;
#X floatatom 144 241 5 0 0 0 - - -, f 5;
#X text 4 212 Moduration;
#X text 4 58 Delay;
#X obj 9 272 hsl 128 15 0 10 0 0 empty empty Depth -2 -8 0 10 -262144
-1 -1 6350 1;
#X floatatom 144 272 5 0 0 0 - - -, f 5;
#X obj 9 301 vradio 15 1 0 4 empty empty Wave 0 -8 0 10 -262144 -1
-1 0;
#X text 32 301 Sine;
#X text 32 316 Triangle;
#X text 32 332 Saw Up;
#X text 32 346 Saw Down;
#N canvas 0 50 1304 725 SignalGen 0;
#X obj 31 15 inlet;
#X obj 253 17 inlet;
#X text 77 16 <---Wave;
#X text 299 17 <--Frequency;
#X obj 491 534 outlet~;
#X obj 161 140 osc~;
#X obj 657 139 phasor~;
#X obj 658 164 -~ 0.5;
#X obj 658 186 *~ 2;
#X obj 351 137 phasor~;
#X obj 351 159 *~ 2;
#X obj 439 158 *~ -2;
#X obj 351 225 +~;
#X obj 351 247 *~ 2;
#X obj 351 203 clip~ 0 1;
#X obj 439 202 clip~ 0 1;
#X obj 351 181 +~ -1;
#X obj 439 180 +~ 1;
#X obj 350 277 -~ 1;
#X obj 952 137 phasor~;
#X obj 952 159 *~ -2;
#X obj 952 181 +~ 1;
#X obj 232 365 == 0;
#X obj 422 363 == 1;
#X obj 727 366 == 2;
#X obj 1015 371 == 3;
#X obj 181 411 *~;
#X obj 366 413 *~;
#X obj 674 418 *~;
#X obj 956 427 *~;
#X connect 0 0 22 0;
#X connect 0 0 23 0;
#X connect 0 0 24 0;
#X connect 0 0 25 0;
#X connect 1 0 5 0;
#X connect 1 0 9 0;
#X connect 1 0 6 0;
#X connect 1 0 19 0;
#X connect 5 0 26 0;
#X connect 6 0 7 0;
#X connect 7 0 8 0;
#X connect 8 0 28 0;
#X connect 9 0 10 0;
#X connect 9 0 11 0;
#X connect 10 0 16 0;
#X connect 11 0 17 0;
#X connect 12 0 13 0;
#X connect 13 0 18 0;
#X connect 14 0 12 0;
#X connect 15 0 12 1;
#X connect 16 0 14 0;
#X connect 17 0 15 0;
#X connect 18 0 27 0;
#X connect 19 0 20 0;
#X connect 20 0 21 0;
#X connect 21 0 29 0;
#X connect 22 0 26 1;
#X connect 23 0 27 1;
#X connect 24 0 28 1;
#X connect 25 0 29 1;
#X connect 26 0 4 0;
#X connect 27 0 4 0;
#X connect 28 0 4 0;
#X connect 29 0 4 0;
#X restore 876 135 pd SignalGen;
#X obj 350 412 +~;
#X obj 653 10 +~;
#X obj 957 90 * 0.1;
#X floatatom 957 112 5 0 0 1 Freq - -, f 5;
#X obj 877 169 *~;
#X floatatom 917 190 5 0 0 1 depth - -, f 5;
#X obj 917 168 * 1;
#X obj 877 211 +~ 10;
#X obj 860 269 +~;
#X obj 654 274 +~;
#X obj 654 296 +~;
#X floatatom 756 297 5 0 0 1 Feedback - -, f 5;
#X obj 689 296 *~ 0.9;
#X obj 756 269 / 10;
#X obj 861 398 +~;
#X obj 76 421 tgl 15 0 empty empty Phase_On 17 7 0 10 -262144 -1 -1
0 1;
#X text 6 370 Output;
#X obj 1082 10 +~;
#N canvas 0 50 566 300 spigot~ 0;
#X obj 63 24 inlet~;
#X obj 95 75 == 0;
#X obj 174 75 == 1;
#X obj 64 174 *~;
#X obj 180 166 *~;
#X obj 179 246 outlet~;
#X obj 63 244 outlet~;
#X obj 233 23 inlet;
#X connect 0 0 3 0;
#X connect 0 0 4 0;
#X connect 1 0 3 1;
#X connect 2 0 4 1;
#X connect 3 0 6 0;
#X connect 4 0 5 0;
#X connect 7 0 1 0;
#X connect 7 0 2 0;
#X restore 1083 41 pd spigot~;
#X obj 1151 74 *~ -1;
#X obj 1084 119 +~;
#X obj 9 400 hsl 128 15 -10 10 0 0 empty empty Pan -2 -8 0 10 -262144
-1 -1 6350 1;
#X floatatom 144 400 5 0 0 0 - - -, f 5;
#X obj 9 422 bng 15 250 50 0 empty empty Center 17 7 0 10 -262144 -1
-1;
#X msg 207 417 0;
#X obj 9 455 hsl 128 15 0 10 0 0 empty empty Level -2 -8 0 10 -262144
-1 -1 6350 1;
#X floatatom 144 455 5 0 0 0 - - -, f 5;
#X obj 1084 408 outlet~;
#X obj 1085 374 *~;
#X obj 1207 408 outlet~;
#X obj 1208 374 *~;
#X obj 1084 141 *~;
#X obj 1152 118 / 10;
#X floatatom 1152 145 5 0 0 1 Level - -, f 5;
#X obj 1150 188 + 10;
#X obj 1150 211 / 10;
#X floatatom 1213 262 5 0 0 1 Right - -, f 5;
#X obj 1213 240 / 2;
#X obj 1128 239 - 2;
#X obj 1128 261 abs;
#X obj 1128 283 / 2;
#X floatatom 1128 305 5 0 0 0 Left - -, f 5;
#X text 669 449 Moduration;
#X text 392 446 Delay;
#X text 1146 467 Output;
#X obj 1334 408 outlet~;
#X text 1082 431 Mixer LeftOut;
#X text 1195 431 Mixer RightOut;
#X text 1329 431 Effect Send mono Out;
#X text 4 511 Left;
#X text 73 511 Right;
#X text 145 482 Effect;
#X text 145 497 Send;
#X text 145 514 MonoOut;
#X text 4 2 Mono;
#X text 2 16 Input;
#X obj 654 318 delwrite~ \$0-moduration 100;
#X obj 877 233 vd~ \$0-moduration;
#X obj 232 49 loadbang;
#X msg 232 71 5;
#X msg 269 73 0;
#X text 10 495 To MixerInput;
#X connect 1 0 2 0;
#X connect 1 0 39 0;
#X connect 3 0 16 0;
#X connect 4 0 5 0;
#X connect 5 0 7 0;
#X connect 5 0 52 0;
#X connect 6 0 16 1;
#X connect 7 0 6 0;
#X connect 8 0 9 0;
#X connect 9 0 21 0;
#X connect 10 0 11 0;
#X connect 11 0 17 0;
#X connect 12 0 13 0;
#X connect 13 0 1 1;
#X connect 14 0 12 0;
#X connect 15 0 12 1;
#X connect 16 0 39 0;
#X connect 16 0 14 0;
#X connect 16 0 15 0;
#X connect 17 0 18 0;
#X connect 18 0 15 1;
#X connect 19 0 14 1;
#X connect 20 0 23 0;
#X connect 21 0 20 0;
#X connect 22 0 1 0;
#X connect 23 0 24 0;
#X connect 24 0 19 0;
#X connect 25 0 26 0;
#X connect 26 0 3 0;
#X connect 27 0 28 0;
#X connect 28 0 41 0;
#X connect 31 0 32 0;
#X connect 32 0 45 0;
#X connect 33 0 38 0;
#X connect 38 0 43 0;
#X connect 39 0 40 0;
#X connect 40 0 47 0;
#X connect 40 0 48 0;
#X connect 41 0 42 0;
#X connect 42 0 38 1;
#X connect 43 0 46 0;
#X connect 44 0 43 1;
#X connect 45 0 44 0;
#X connect 46 0 96 0;
#X connect 47 0 53 0;
#X connect 48 0 49 0;
#X connect 49 0 95 0;
#X connect 50 0 51 1;
#X connect 51 0 49 1;
#X connect 52 0 50 0;
#X connect 53 0 56 0;
#X connect 54 0 57 1;
#X connect 56 0 57 0;
#X connect 57 0 59 0;
#X connect 57 1 58 0;
#X connect 58 0 59 1;
#X connect 59 0 70 0;
#X connect 60 0 61 0;
#X connect 61 0 73 0;
#X connect 62 0 63 0;
#X connect 63 0 60 0;
#X connect 64 0 65 0;
#X connect 65 0 71 0;
#X connect 67 0 66 0;
#X connect 69 0 68 0;
#X connect 70 0 67 0;
#X connect 70 0 69 0;
#X connect 70 0 84 0;
#X connect 71 0 72 0;
#X connect 72 0 70 1;
#X connect 73 0 74 0;
#X connect 74 0 77 0;
#X connect 74 0 76 0;
#X connect 75 0 69 1;
#X connect 76 0 75 0;
#X connect 77 0 78 0;
#X connect 78 0 79 0;
#X connect 79 0 80 0;
#X connect 80 0 67 1;
#X connect 96 0 47 1;
#X connect 96 0 51 0;
#X connect 97 0 98 0;
#X connect 97 0 99 0;
#X connect 98 0 25 0;
#X connect 98 0 8 0;
#X connect 98 0 10 0;
#X connect 98 0 4 0;
#X connect 98 0 27 0;
#X connect 98 0 31 0;
#X connect 98 0 64 0;
#X connect 99 0 33 0;
#X connect 99 0 62 0;
#X connect 99 0 54 0;
#X coords 0 -1 1 1 200 530 2 0 0;
