#N canvas 239 59 1389 939 10;
#X obj 54 87 SamplerPhasor;
#X obj 209 779 *~;
#X obj 236 779 *~;
#X obj 60 371 adsr~;
#X obj 60 783 EffectsSend;
#X obj 60 500 Filter~;
#X obj 210 850 dac~;
#X obj 60 654 adsr~;
#X obj 99 1016 outlet~ \$0-Reverb_Ch_Send_R_Out;
#X obj 58 1037 outlet~ \$0-Reverb_Ch_Send_L_Out;
#X obj 136 996 outlet~ \$0-Delay_Ch_Send_L_Out;
#X obj 177 975 outlet~ \$0-Delay_Ch_Send_R_Out;
#X obj 54 69 inlet \$0-Trigger;
#X obj 63 353 hsl 120 15 0 1 0 0 empty empty Level -2 -8 0 10 -262144
-1 -1 11900 1;
#X obj 209 800 *~;
#X obj 236 800 *~;
#X text 264 779 ADSR Amplitude Envelope;
#X text 265 800 Level Envelope;
#X obj 61 263 SampleNaming;
#X obj 235 318 loadbang;
#X msg 235 337 1;
#X connect 0 0 4 0;
#X connect 0 0 5 0;
#X connect 0 1 4 1;
#X connect 0 1 5 1;
#X connect 1 0 14 0;
#X connect 2 0 15 0;
#X connect 3 0 5 2;
#X connect 4 0 9 0;
#X connect 4 1 8 0;
#X connect 4 2 10 0;
#X connect 4 3 11 0;
#X connect 5 0 1 0;
#X connect 5 1 2 0;
#X connect 7 0 1 1;
#X connect 7 0 2 1;
#X connect 12 0 0 0;
#X connect 12 0 3 0;
#X connect 12 0 7 0;
#X connect 13 0 14 1;
#X connect 13 0 15 1;
#X connect 14 0 6 0;
#X connect 15 0 6 1;
#X connect 18 0 0 1;
#X connect 19 0 20 0;
#X connect 20 0 13 0;
#X coords 0 -1 1 1 135 660 2 55 250;
