#N canvas 783 65 540 938 10;
#X msg 67 422 set \$1;
#X floatatom 259 452 15 1 20 0 - - -, f 15;
#X msg 67 375 symbol wav;
#X obj 66 481 makefilename not-set-yet;
#X obj 67 398 makefilename %%d.%s;
#X msg 66 519 set \$1;
#X obj 65 539 makefilename not-set-yet;
#X obj 66 500 makefilename %%s%s;
#X obj 207 402 bng 15 250 50 0 empty empty empty 17 7 0 10 -262144
-1 -1;
#X obj 380 448 vradio 15 1 1 6 empty empty empty 0 -8 0 10 -228856
-1 -1 0;
#X obj 380 550 + 1;
#X obj 262 434 hsl 100 15 0 5.99 0 0 empty empty empty -2 -8 0 10 -262144
-1 -1 0 1;
#X floatatom 138 715 5 0 0 0 - - -, f 5;
#X obj 138 692 int;
#X obj 138 738 change;
#X obj 135 783 bng 15 250 50 0 empty empty empty 17 7 0 10 -262144
-1 -1;
#X obj 152 783 bng 15 250 50 0 empty empty empty 17 7 0 10 -262144
-1 -1;
#X obj 170 783 bng 15 250 50 0 empty empty empty 17 7 0 10 -262144
-1 -1;
#X obj 187 783 bng 15 250 50 0 empty empty empty 17 7 0 10 -262144
-1 -1;
#X obj 258 368 symbol;
#X symbolatom 259 417 15 0 0 2 Type - -, f 15;
#X text 181 737 Only output when change occurs;
#X text 181 690 Round to int;
#X text 181 712 Visual rounding;
#X text 237 762 Select between which message;
#X text 341 841 Possible messages;
#X obj 258 350 r \$0-filtertype;
#X obj 71 879 s \$0-filtertype;
#X msg 71 840 Kick;
#X msg 106 840 Snare;
#X msg 148 840 Hat;
#X obj 67 355 loadbang;
#X msg 258 563 set \$1;
#X obj 258 582 makefilename not-set-yet;
#X obj 258 544 makefilename %%s%s;
#X obj 258 506 loadbang;
#X msg 258 525 symbol s/;
#X msg 65 578 set \$1;
#X obj 65 598 makefilename not-set-yet;
#X obj 65 559 makefilename %%s%s;
#X obj 65 617 makefilename Samples/%s;
#X obj 205 783 bng 15 250 50 0 empty empty empty 17 7 0 10 -262144
-1 -1;
#X obj 222 783 bng 15 250 50 0 empty empty empty 17 7 0 10 -262144
-1 -1;
#X msg 179 840 Percussion;
#X msg 293 840 Effect;
#X obj 138 762 sel 1 2 3 4 5 6;
#X obj 65 636 outlet \$0-Sample_Naming_Output;
#X msg 250 840 Bass;
#X obj 425 415 loadbang;
#X msg 425 437 1;
#X connect 0 0 3 0;
#X connect 1 0 3 0;
#X connect 1 0 8 0;
#X connect 2 0 4 0;
#X connect 3 0 7 0;
#X connect 4 0 0 0;
#X connect 5 0 6 0;
#X connect 6 0 39 0;
#X connect 7 0 5 0;
#X connect 8 0 20 0;
#X connect 9 0 10 0;
#X connect 10 0 13 0;
#X connect 11 0 9 0;
#X connect 12 0 14 0;
#X connect 13 0 12 0;
#X connect 14 0 45 0;
#X connect 15 0 28 0;
#X connect 16 0 29 0;
#X connect 17 0 30 0;
#X connect 18 0 43 0;
#X connect 19 0 20 0;
#X connect 20 0 6 0;
#X connect 20 0 33 0;
#X connect 26 0 19 0;
#X connect 28 0 27 0;
#X connect 29 0 27 0;
#X connect 30 0 27 0;
#X connect 31 0 2 0;
#X connect 32 0 33 0;
#X connect 33 0 38 0;
#X connect 34 0 32 0;
#X connect 35 0 36 0;
#X connect 36 0 34 0;
#X connect 37 0 38 0;
#X connect 38 0 40 0;
#X connect 39 0 37 0;
#X connect 40 0 46 0;
#X connect 41 0 47 0;
#X connect 42 0 44 0;
#X connect 43 0 27 0;
#X connect 44 0 27 0;
#X connect 45 0 15 0;
#X connect 45 1 16 0;
#X connect 45 2 17 0;
#X connect 45 3 18 0;
#X connect 45 4 41 0;
#X connect 45 5 42 0;
#X connect 47 0 27 0;
#X connect 48 0 49 0;
#X connect 49 0 1 0;
#X coords 0 -1 1 1 125 75 2 250 400;
