#N canvas 485 138 1332 857 10;
#X floatatom 175 206 0 0 0 0 - - -;
#X obj 175 185 ==;
#X obj 163 162 t b f;
#X obj 157 112 f;
#X msg 163 141 0;
#X obj 271 186 ==;
#X obj 259 163 t b f;
#X obj 253 113 f;
#X msg 259 142 1;
#X obj 79 125 loadbang;
#X obj 136 231 spigot;
#X floatatom 271 208 0 0 0 0 - - -;
#X obj 232 233 spigot;
#X floatatom 368 206 0 0 0 0 - - -;
#X obj 368 185 ==;
#X obj 356 162 t b f;
#X obj 350 112 f;
#X obj 464 186 ==;
#X obj 452 163 t b f;
#X obj 446 113 f;
#X obj 329 231 spigot;
#X floatatom 464 208 0 0 0 0 - - -;
#X obj 425 233 spigot;
#X msg 356 141 2;
#X msg 452 142 3;
#X floatatom 561 206 0 0 0 0 - - -;
#X obj 561 185 ==;
#X obj 549 162 t b f;
#X obj 543 112 f;
#X obj 657 186 ==;
#X obj 645 163 t b f;
#X obj 639 113 f;
#X obj 522 231 spigot;
#X floatatom 657 208 0 0 0 0 - - -;
#X obj 618 233 spigot;
#X floatatom 754 206 0 0 0 0 - - -;
#X obj 754 185 ==;
#X obj 742 162 t b f;
#X obj 736 112 f;
#X obj 850 186 ==;
#X obj 838 163 t b f;
#X obj 832 113 f;
#X obj 715 231 spigot;
#X floatatom 850 208 0 0 0 0 - - -;
#X obj 811 233 spigot;
#X msg 549 141 4;
#X msg 645 142 5;
#X msg 742 141 6;
#X msg 838 142 7;
#X floatatom 947 206 0 0 0 0 - - -;
#X obj 947 185 ==;
#X obj 935 162 t b f;
#X obj 929 112 f;
#X obj 1043 186 ==;
#X obj 1031 163 t b f;
#X obj 1025 113 f;
#X obj 908 231 spigot;
#X floatatom 1043 208 0 0 0 0 - - -;
#X obj 1004 233 spigot;
#X floatatom 1140 206 0 0 0 0 - - -;
#X obj 1140 185 ==;
#X obj 1128 162 t b f;
#X obj 1122 112 f;
#X obj 1244 186 ==;
#X obj 1232 163 t b f;
#X obj 1226 113 f;
#X obj 1101 231 spigot;
#X floatatom 1244 208 0 0 0 0 - - -;
#X obj 1205 233 spigot;
#X msg 935 141 8;
#X msg 1031 142 9;
#X msg 1128 141 10;
#X msg 1232 142 11;
#X obj 136 262 outlet \$0-C0;
#X obj 232 262 outlet \$0-C1;
#X obj 329 262 outlet \$0-C2;
#X obj 425 262 outlet \$0-C3;
#X obj 522 262 outlet \$0-C4;
#X obj 618 262 outlet \$0-C5;
#X obj 715 262 outlet \$0-C6;
#X obj 811 262 outlet \$0-C7;
#X obj 908 262 outlet \$0-C8;
#X obj 1004 262 outlet \$0-C9;
#X obj 1101 262 outlet \$0-C10;
#X obj 1205 262 outlet \$0-C11;
#X obj 80 17 inlet \$0-WhichChannel;
#X obj 214 29 inlet \$0-B;
#X obj 214 49 s \$0-B;
#X obj 80 43 s \$0-WC;
#X obj 136 209 r \$0-B;
#X obj 232 211 r \$0-B;
#X obj 329 209 r \$0-B;
#X obj 425 211 r \$0-B;
#X obj 522 209 r \$0-B;
#X obj 618 211 r \$0-B;
#X obj 715 209 r \$0-B;
#X obj 811 211 r \$0-B;
#X obj 908 209 r \$0-B;
#X obj 1004 211 r \$0-B;
#X obj 1101 209 r \$0-B;
#X obj 1205 211 r \$0-B;
#X obj 157 91 r \$0-WC;
#X obj 250 92 r \$0-WC;
#X obj 350 91 r \$0-WC;
#X obj 443 92 r \$0-WC;
#X obj 543 91 r \$0-WC;
#X obj 636 92 r \$0-WC;
#X obj 736 91 r \$0-WC;
#X obj 829 92 r \$0-WC;
#X obj 929 91 r \$0-WC;
#X obj 1022 92 r \$0-WC;
#X obj 1122 91 r \$0-WC;
#X obj 1223 92 r \$0-WC;
#X connect 0 0 10 1;
#X connect 1 0 0 0;
#X connect 2 0 3 0;
#X connect 2 1 1 1;
#X connect 3 0 1 0;
#X connect 4 0 2 0;
#X connect 5 0 11 0;
#X connect 6 0 7 0;
#X connect 6 1 5 1;
#X connect 7 0 5 0;
#X connect 8 0 6 0;
#X connect 9 0 4 0;
#X connect 9 0 8 0;
#X connect 9 0 23 0;
#X connect 9 0 24 0;
#X connect 9 0 46 0;
#X connect 9 0 47 0;
#X connect 9 0 45 0;
#X connect 9 0 48 0;
#X connect 9 0 69 0;
#X connect 9 0 70 0;
#X connect 9 0 71 0;
#X connect 9 0 72 0;
#X connect 10 0 73 0;
#X connect 11 0 12 1;
#X connect 12 0 74 0;
#X connect 13 0 20 1;
#X connect 14 0 13 0;
#X connect 15 0 16 0;
#X connect 15 1 14 1;
#X connect 16 0 14 0;
#X connect 17 0 21 0;
#X connect 18 0 19 0;
#X connect 18 1 17 1;
#X connect 19 0 17 0;
#X connect 20 0 75 0;
#X connect 21 0 22 1;
#X connect 22 0 76 0;
#X connect 23 0 15 0;
#X connect 24 0 18 0;
#X connect 25 0 32 1;
#X connect 26 0 25 0;
#X connect 27 0 28 0;
#X connect 27 1 26 1;
#X connect 28 0 26 0;
#X connect 29 0 33 0;
#X connect 30 0 31 0;
#X connect 30 1 29 1;
#X connect 31 0 29 0;
#X connect 32 0 77 0;
#X connect 33 0 34 1;
#X connect 34 0 78 0;
#X connect 35 0 42 1;
#X connect 36 0 35 0;
#X connect 37 0 38 0;
#X connect 37 1 36 1;
#X connect 38 0 36 0;
#X connect 39 0 43 0;
#X connect 40 0 41 0;
#X connect 40 1 39 1;
#X connect 41 0 39 0;
#X connect 42 0 79 0;
#X connect 43 0 44 1;
#X connect 44 0 80 0;
#X connect 45 0 27 0;
#X connect 46 0 30 0;
#X connect 47 0 37 0;
#X connect 48 0 40 0;
#X connect 49 0 56 1;
#X connect 50 0 49 0;
#X connect 51 0 52 0;
#X connect 51 1 50 1;
#X connect 52 0 50 0;
#X connect 53 0 57 0;
#X connect 54 0 55 0;
#X connect 54 1 53 1;
#X connect 55 0 53 0;
#X connect 56 0 81 0;
#X connect 57 0 58 1;
#X connect 58 0 82 0;
#X connect 59 0 66 1;
#X connect 60 0 59 0;
#X connect 61 0 62 0;
#X connect 61 1 60 1;
#X connect 62 0 60 0;
#X connect 63 0 67 0;
#X connect 64 0 65 0;
#X connect 64 1 63 1;
#X connect 65 0 63 0;
#X connect 66 0 83 0;
#X connect 67 0 68 1;
#X connect 68 0 84 0;
#X connect 69 0 51 0;
#X connect 70 0 54 0;
#X connect 71 0 61 0;
#X connect 72 0 64 0;
#X connect 85 0 88 0;
#X connect 86 0 87 0;
#X connect 89 0 10 0;
#X connect 90 0 12 0;
#X connect 91 0 20 0;
#X connect 92 0 22 0;
#X connect 93 0 32 0;
#X connect 94 0 34 0;
#X connect 95 0 42 0;
#X connect 96 0 44 0;
#X connect 97 0 56 0;
#X connect 98 0 58 0;
#X connect 99 0 66 0;
#X connect 100 0 68 0;
#X connect 101 0 3 0;
#X connect 102 0 7 0;
#X connect 103 0 16 0;
#X connect 104 0 19 0;
#X connect 105 0 28 0;
#X connect 106 0 31 0;
#X connect 107 0 38 0;
#X connect 108 0 41 0;
#X connect 109 0 52 0;
#X connect 110 0 55 0;
#X connect 111 0 62 0;
#X connect 112 0 65 0;
